<svg width="120" height="48" viewBox="0 0 120 48" fill="none" xmlns="http://www.w3.org/2000/svg">
  <rect width="120" height="48" rx="12" fill="url(#gradient)"/>
  
  <!-- Logo icon on the left -->
  <rect x="8" y="8" width="32" height="32" rx="6" fill="white" fill-opacity="0.95"/>
  <path d="M14 18C14 16.8954 14.8954 16 16 16H22C23.1046 16 24 16.8954 24 18V22C24 23.1046 23.1046 24 22 24H16C14.8954 24 14 23.1046 14 22V18Z" fill="#015ea9"/>
  <path d="M26 28C26 26.8954 26.8954 26 28 26H34C35.1046 26 36 26.8954 36 28V32C36 33.1046 35.1046 34 34 34H28C26.8954 34 26 33.1046 26 32V28Z" fill="#81ceef"/>
  <circle cx="19" cy="20" r="1.5" fill="#81ceef"/>
  <circle cx="31" cy="30" r="1.5" fill="#015ea9"/>
  
  <!-- Text on the right -->
  <text x="48" y="20" font-family="Arial, sans-serif" font-size="14" font-weight="bold" fill="white">SimWeGo</text>
  <text x="48" y="35" font-family="Arial, sans-serif" font-size="10" fill="white" opacity="0.9">Admin Dashboard</text>
  
  <defs>
    <linearGradient id="gradient" x1="0" y1="0" x2="120" y2="0" gradientUnits="userSpaceOnUse">
      <stop stop-color="#015ea9"/>
      <stop offset="1" stop-color="#81ceef"/>
    </linearGradient>
  </defs>
</svg>